<svg width="1324" height="981" viewBox="0 0 1324 981" fill="none" xmlns="http://www.w3.org/2000/svg">
<path d="M983 612V620V635M983 612L1038.53 631.5M983 612V590L986.5 571L991 567.5L1018 566.5L1047.5 568.5L1055.5 565.5M983 635H1037M983 635V667L891 665.757M1037 635H1048.5L1041 632.366M1037 635L1038.53 631.5M1038.53 631.5L1041 632.366M1041 632.366V620L1063 595L1065.5 582.5M1065.5 582.5L1074 576.5V561M1065.5 582.5L1057 576.5L1055.5 565.5M1074 561H1065.5M1074 561C1100.4 547.4 1109 532.333 1110 526.5L1177 508M1065.5 561L1055 538.5M1065.5 561L1055.5 565.5M1055 538.5L1041 519.5L1034 508M1055 538.5L1074 526.5L1087 508L1104.5 497.5M1034 508L1033 501L1035 497.5M1034 508L1040 505M1035 497.5L1040 505M1035 497.5C1035.67 496.333 1037 493.8 1037 493C1037 492.2 1038 485.333 1038.5 482L1035 465.5L1037 460L1047.5 447.5L1061.5 421L1082 403.5M1040 505L1049.5 501L1075.5 473.5L1087 455.5L1088.5 440L1097 417M866.5 651L872 665.5L891 665.757M866.5 651L877.5 635M866.5 651L872 649L877.5 640.5H886V646L891 650.378M866.5 651L859.5 644L857.5 637M866.5 651C865.167 655 856.9 664.7 834.5 671.5L822 686.5L796.5 688.5M877.5 635H891M877.5 635H872M891 635V650.378M891 635L891.868 596.5M891 665.757V650.378M892.5 568.5L891.868 596.5M892.5 568.5L896 575M892.5 568.5L875.288 566.75M840.5 552.5L845.5 586.5M840.5 552.5L842.839 523.5M840.5 552.5L854.346 560.5M840.5 552.5L783 503M840.5 552.5L833 568.5L823.5 577C812.5 581.833 787.1 594.7 773.5 607.5M845.5 586.5L855.5 603.5L874 623.5M845.5 586.5V591.5L857.5 637M874 623.5L891.868 596.5M874 623.5L870.5 628.5L872 635M872 635L870.5 637H857.5M1097 417L1088.5 411.5L1082 403.5M1097 417L1104.5 402M1082 403.5L1088.5 394.5M1104.5 402L1088.5 394.5M1104.5 402L1126.5 413M1104.5 402L1122 377L1126.5 356.5L1135 338.333M1088.5 394.5C1086.19 402.579 1097 379 1103.5 353.5C1107.03 344.583 1111.71 338.653 1114.5 331.5M1126.5 413L1168.5 440M1126.5 413L1122 421L1118 438.5L1115.5 452.5L1114 464.5L1112.5 480.5L1104.5 497.5M1126.5 413C1135.3 397 1152.83 394 1160.5 394.5C1165.89 388.72 1168.01 375.98 1168.46 369.689M1168.5 440L1153.5 458V476.5L1150 486.5L1139 493L1104.5 497.5M1168.5 440L1171.5 417C1172.5 413 1176.1 404.7 1182.5 403.5C1188.9 402.3 1201.5 384 1207 375L1218.5 369L1221 364M1168.5 440C1176.33 443.167 1191.8 450.1 1191 452.5M1221 364C1224.56 364.619 1232.31 368.196 1241.5 372.959M1221 364L1193.84 356.5M1221 364L1222.5 357L1223 342C1225.4 334.4 1226 322.5 1226 317.5L1223 308.5M1168.5 349.5C1166.67 354 1164.1 364.2 1168.5 369C1168.49 369.22 1168.47 369.45 1168.46 369.689M1168.5 349.5L1193.84 356.5M1168.5 349.5L1141.5 340.5M1168.5 349.5C1172.5 340.7 1179.5 335.167 1182.5 333.5M1191 452.5L1200.5 465.5M1191 452.5L1177 508M1191 452.5L1196.5 444.5L1197.5 428L1203 421L1218.5 419C1232.9 409 1235.17 400.5 1234.5 397.5M1200.5 465.5L1207 460L1239 452.5L1261.5 443.5L1271 434.5M1200.5 465.5L1216 503.5V515M1271 434.5L1278.5 417M1271 434.5C1272.25 428.383 1269.77 416.28 1254.5 406.388M1216 515C1212 509.833 1198.6 501.2 1177 508M1216 515C1220 516.833 1230.6 519.4 1241 515L1271 487.5M1271 487.5C1282 485.167 1304.7 478.9 1307.5 472.5M1271 487.5C1271 480.7 1285.67 466.333 1293 460M1307.5 472.5L1315.25 462.5M1307.5 472.5L1299 465.172M1318 436.5L1323 452.5L1321.08 454.98M1318 436.5L1299 465.172M1318 436.5L1318.26 431.5M1299 431.5L1294.5 447.5M1299 431.5L1305.58 438.5M1299 431.5L1307.5 421.756M1299 431.5L1278.5 417M1294.5 447.5L1293 460M1294.5 447.5L1315.25 462.5M1293 460L1299 465.172M1315.25 462.5L1321.08 454.98M1321.08 454.98L1305.58 438.5M1305.58 438.5L1313.5 428M1313.5 428L1307.5 421.756M1313.5 428L1318.26 431.5M1307.5 421.756L1319.5 408L1318.26 431.5M1278.5 417L1285 397.5M1285 397.5C1278.9 393.838 1270.39 388.851 1261.5 383.841M1285 397.5C1288.66 388.106 1292.9 374.724 1290.74 358.5M1234.5 397.5L1238 385.229M1234.5 397.5C1242.83 400.009 1249.38 403.075 1254.5 406.388M1241.5 372.959L1238 385.229M1241.5 372.959C1247.79 376.22 1254.75 380.037 1261.5 383.841M1241.5 372.959C1243.79 364.926 1252.45 352.639 1256.5 347.5M1238 385.229L1256.5 396M1256.5 396L1261.5 383.841M1256.5 396L1254.5 406.388M1168.46 369.689H1172.5C1173.67 367.293 1178.7 362.4 1189.5 362L1193.84 356.5M1193.84 356.5C1194.69 353.145 1197.78 344.626 1203.96 333.5M1114.5 331.5L1135 338.333M1114.5 331.5L1126.5 314.5L1136 296M1135 338.333L1137.5 330M1135 338.333L1141.5 340.5M1137.5 330L1141.5 340.5M1137.5 330L1138.5 313L1136 296M1136 296L1143 285L1156 271.5L1159 263L1161 251.5L1168.5 240.5L1171 227.5M1171 227.5C1166.83 228 1156.9 228 1150.5 224M1171 227.5L1181 215.227M1182 214L1190.5 213M1182 214C1186 204.8 1192 204 1194.5 204.75M1182 214L1181 215.227M1190.5 213L1195 217L1198 216M1190.5 213L1194 209.5M1198 216L1209 225L1212.5 229.5V238.5L1225 253.5V274L1216.5 285M1198 216V212.5L1194 209.5M1216.5 285C1222.5 285.167 1232.2 290.1 1223 308.5M1216.5 285L1205 296C1199.67 299 1189.5 306.6 1191.5 313M1223 308.5C1219.4 310.9 1212.17 320.5 1209 325M1191.5 313C1188.7 316.6 1188.33 322.5 1188.5 325M1191.5 313L1198.06 317.5M1209 325C1207.13 327.962 1205.45 330.807 1203.96 333.5M1209 325L1205 322.257M1203.96 333.5L1198.9 334.063M1182.5 333.5L1186 335.5L1193.84 334.626M1182.5 333.5L1188.5 325M1188.5 325L1193 327.5M1193 327.5L1198.06 317.5M1193 327.5L1193.84 334.626M1198.06 317.5L1205 322.257M1193.84 334.626L1198.9 334.063M1198.9 334.063C1198.1 332.714 1198.2 328.463 1205 322.257M1256.5 347.5L1270.5 322.5L1275 321.5C1284.76 334.922 1289.26 347.378 1290.74 358.5M1256.5 347.5L1290.74 358.5M1150.5 224L1140.5 236.5H1111L1098 249L1061.5 261L1035.5 278.5M1150.5 224C1155 216.833 1158.9 200.4 1138.5 192L1129.5 184.5L1122.5 187.5C1120.83 185.833 1114.8 182.4 1104 182M1035.5 278.5C1034.7 278.5 1032.5 282.5 1031.5 284.5H1014C1010.17 282.5 1001.6 278.5 998 278.5C994.4 278.5 987.5 281.167 984.5 282.5L974 278.5L970.5 276.5M1035.5 278.5C1034.2 275.471 1032.19 271.432 1029.6 267M1000 235.5L996.5 249L991.5 262L970.5 276.5M1000 235.5C1007.49 239.159 1014.31 245.734 1020 252.885M1000 235.5L1001.5 231L1005 227.5L1009.5 224.5H1014.5L1025 216C1043 214 1053.17 208.5 1056 206M970.5 276.5C968.167 276 962.7 276.7 959.5 283.5M1029.6 267L1030.5 255L1020 252.885M1029.6 267C1026.96 262.484 1023.72 257.561 1020 252.885M1104 182L1100 194L1101 213L1088.5 227.5H1083L1065 217L1056 206M1104 182L1101.8 161.5M1056 206L1057.5 189.5L1078.5 176L1097.42 157.5M1101 154L1101.8 161.5M1101 154L1097.42 157.5M1101 154L1156 131.5L1164.5 122.5V112.5L1166.5 111.5M1101.8 161.5L1097.42 157.5M876.5 479C862.492 488.913 853.951 498.594 849 506.432M876.5 479L884.5 491.5M876.5 479L867.5 462.5M876.5 479C886.5 469.8 898.333 466.5 903 466M849 506.432C844.761 513.142 843.154 518.502 843 521.5L842.839 523.5M849 506.432L861 514M861 514L872.5 517.5M861 514L855.5 530.799M872.5 517.5L868.25 538.15M872.5 517.5L874.115 514M884.5 491.5L894 499M884.5 491.5L874.115 514M894 499V517.5M894 499C895 487 892.3 481.4 905.5 483L910 482V476L903 466M894 517.5L900 533C901 539.833 898.6 551.9 881 545.5M894 517.5L874.115 514M881 545.5L875.288 566.75M881 545.5L868.25 538.15M842.839 523.5L855.5 530.799M842.839 523.5L834 509L829 486M875.288 566.75L863 565.5L854.346 560.5M854.346 560.5L855.5 530.799M855.5 530.799L868.25 538.15M783 503V487M783 503L770.5 527.39M783 487H790L796.5 482L822.5 480L829 486M783 487L761.5 476M829 486H837.5L867.5 462.5M867.5 462.5L878 445L888 439.5L896 438C897.667 438.833 901.4 445.6 903 466M761.5 476L760 469M761.5 476V484.5L755 492L751.5 498.5L743.5 502C737.5 500 734 504.833 733 507.5H683.5M760 469L768 463.5L768.5 452.5L777 443.5L773 442L761.5 451M760 469L756 468.5L753.5 459V448.5M760 469L761.5 451M761.5 451L753.5 448.5M753.5 448.5L750 443.5L746.5 442L743 438H738L733.5 441L704.5 443.5M777.5 443.5L777 430.5L781.5 423C780.667 418.5 782.3 409.7 795.5 410.5L810 395.5M810 395.5V388.5M810 395.5L821.5 399L853.5 383.5L864.5 384.5L873 383.5L893.5 374L900.5 366L903.5 359M903.5 359L912.5 356.5L919 352.5M903.5 359C902.629 356.454 898.062 355.65 897.5 353C895.687 344.459 901.475 334.575 912.5 342.5C915.069 344.346 915.558 348.695 919 352.5M919 352.5L924.5 352M919 352.5L933.5 359.5L924.5 352M924.5 352C929.667 345.333 939.7 331.9 938.5 331.5L940.5 318L941 305.5M941 305.5L950.5 300.5M941 305.5L938.5 302L941.5 295L940.5 288.5M950.5 300.5H961.5L962.5 301.5M950.5 300.5L953.5 293.5L951 289M964 312.5L966 305L962.5 301.5M959.5 283.5L962.5 286.5V301.5M959.5 283.5L951 289M940.5 288.5L945.5 284.5L951 289M940.5 288.5L935.5 283.5L924.5 276.5L914 274V264.5M1194 209.5L1194.5 204.75M1194.5 204.75L1194.84 201.5M1181 215.227V208L1188 197L1194.84 201.5M1194.84 201.5L1195 200L1203.5 190.5L1211 184.5L1223 158.5M1223 158.5L1222 152C1223.5 149.833 1225.8 143.8 1223 137L1232.5 127L1239 123.5M1223 158.5L1245.5 159.5L1253.5 167.5L1262 171.935M1239 123.5L1230.5 117.5L1221.5 102L1218 99M1239 123.5L1241.75 121.5M1218 99C1244 86.2 1257.17 87.6667 1260.5 90M1218 99L1201.5 102L1197 97L1196 91M1265 173.5L1262.5 184.5M1265 173.5C1268.5 172.5 1273.2 169.4 1264 165M1265 173.5L1262 171.935M1264 165V168.5L1262 171.935M1264 165L1258.5 159.5M1258.5 159.5C1259 157.333 1260.7 152.8 1263.5 152M1258.5 159.5L1266.5 157L1263.5 152M1263.5 152C1265.17 147.833 1266.1 136.9 1256.5 126.5L1244.5 119.5M1244.5 119.5L1241.75 121.5M1244.5 119.5L1259.5 100M1241.75 121.5L1243 125.5M1259.5 100L1273 108M1259.5 100L1260.5 90M1260.5 90L1263.23 70.5M1250.5 54.5L1258.5 48.5V56.5L1264 65L1263.23 70.5M1263.23 70.5H1270M1221.5 97L1222 84.5L1215.5 74.5M1215.5 74.5L1208 82.5M1215.5 74.5L1218 50.5L1228 48.5M1208 82.5V88L1196 91M1208 82.5C1205.67 77.1667 1200.6 66.9 1199 68.5L1197 72M1196 91L1179.5 95.5M1196 91V88L1194 84.5V78L1197 72M1179.5 95.5V115.5M1179.5 95.5H1173.5M1169.5 110V102.5L1173 95.5H1173.5M1169.5 110L1176 115.5L1169 102.5L1163.61 102.358M1169.5 110L1166.5 111.5M1150 102L1157.5 102.197M1150 102L1147.5 97M1150 102L1147.5 109.5M1157.5 102.197L1163.11 108M1157.5 102.197L1163.61 102.358M1166.5 111.5L1163.11 108M1163.11 108L1163.61 102.358M1173.5 95.5C1173.33 88.8333 1175.1 73.5 1183.5 65.5L1197 72M773.5 607.5C773.5 609 782.5 616.5 800.5 647.5L806.5 677.5L796.5 688.5M773.5 607.5C772.3 607.5 764.667 595.5 761 589.5M796.5 688.5L787.086 699M761 589.5L764.5 552.5L762.5 543L770.5 527.39M761 589.5H726L684 601M770.5 527.39L762.5 523.5M684 601L688.5 614.5L695.5 633V649.5M684 601L681 588M783.5 703L773.5 707.5M783.5 703L787.086 699M783.5 703L778 717M773.5 707.5L778 717M773.5 707.5H767M713.5 719.5L746.5 707.5H767M713.5 719.5C714.5 720.167 717.1 724.3 719.5 735.5C736.3 741.5 757.167 751 765.5 755M713.5 719.5C709.833 718.333 699.7 713.9 688.5 705.5M787.086 699L776.5 692.5M776.5 692.5L770 699H760.5M776.5 692.5L770 691M778 717L775 725M775 725C772.167 722.5 766.6 715.5 767 707.5M775 725L765.5 755M765.5 755C762.619 770.769 750.642 786.818 735 794C720 797 710.488 799.404 696 800C680.962 800.619 663.411 802.08 652.5 801.5M688.5 705.5C688.395 710.118 683.267 722.005 667 741.162M688.5 705.5C678.5 692.3 675.333 681.333 675 677.5M625.5 782.5C619.667 774.833 613.8 755.5 637 739.5M625.5 782.5C635.183 773.979 643.472 766.146 650.545 759M625.5 782.5C629.68 796.1 645.242 800.833 652.5 801.5M625.5 782.5C612.5 791.5 586.5 815.5 547 836C546.626 837.408 546.222 838.914 545.793 840.5M637 739.5L647.5 733.015M637 739.5L647.5 754.617M650.545 759C653.389 756.126 656.037 753.364 658.5 750.712M650.545 759L647.5 754.617M658.5 750.712C661.623 747.35 664.449 744.167 667 741.162M658.5 750.712L657.321 749M658.5 750.712C652.167 761.808 642.1 787.5 652.5 801.5M660 734L652.5 742L657.321 749M660 734L667 741.162M660 734L667 729M660 734L654 729L647.5 733.015M647.5 733.015L642.5 729M647.5 754.617L657.321 749M695.5 649.5H678.5L675 651M695.5 649.5C690 650.167 678.2 653.9 675 663.5M675 651L674.475 654.5M675 651L665.898 655.5M675 663.5L673.5 661L674.475 654.5M675 663.5V677.5M675 663.5L674.475 669H666M675 677.5L647.5 672.5C648.167 664 648.4 646 644 642M644 642L647.5 640.5M644 642L611.5 647M647.5 640.5L657.321 656.5M647.5 640.5L636 623.5C634.27 619.752 633.962 612.489 644 597C645.569 594.579 647.391 588.65 649.5 586M657.321 656.5L658.5 665.5L666 669M657.321 656.5L665.898 655.5M674.475 654.5L665.898 655.5M673.5 672.5L666 669M524 906L499.5 898M524 906C528.483 901.517 539.713 862.953 545.793 840.5M524 906L515 927.5L491 965L468 971.5L462 979.5C456.333 979 442.2 975.4 431 965M499.5 898L502.5 888M499.5 898L487.5 891.5C484.167 883.833 474.7 865.4 463.5 853M463.5 853C460.987 857.273 459.246 865.21 459 871C458.463 883.639 462.757 895.456 465.5 903C468.3 920.6 460.667 938 456.5 944.5L431 965M463.5 853L463.246 847M485.5 794L473.5 796L468 804.5L469.5 814.5L462 817.5L463.246 847M485.5 794L501.5 787.5M485.5 794L488 787L480.5 778.5V773.5M501.5 787.5L509 801.5L520.5 812.5L544.5 830.5L545.793 840.5M501.5 787.5L499.5 782M501.5 787.5C519 777.5 508.833 772.5 502.5 771M499.5 782L501.5 779.5L502.5 771M499.5 782L494.5 778.5H489L480.5 773.5M502.5 771L486.5 770.5M480.5 773.5L486.5 770.5M486.5 770.5L485 767L473.5 750.712M473.5 750.712L496 748.5L505 750.712C508.333 751.308 519.5 754.7 537.5 763.5H546.5C549.667 759.667 559.9 752.6 575.5 755L581.5 748.5L583 717.5L589 709L593.5 686.5L595 660.5L601.5 652.5L609 651L611.5 647M473.5 750.712L479 743.5V736M473.5 750.712C445.9 764.082 432 782.475 428.5 790L424.5 798.5L413.5 804.5L406 817.5M611.5 647L561 651L550 648.5L543.5 644M543.5 644H532L517.5 659L489.5 657.5M543.5 644L539.5 629L534.5 624.5L533 614.5L532 608L534.5 599L533 584M489.5 657.5C490 663.333 491 675.3 491 676.5C491 677.7 487 688.667 485 694L482 727L479 730.5V736M489.5 657.5L488.75 655.25L488 653M489.5 657.5L488.75 625.5M479 736L489 734C491.167 734.667 494.6 736.9 491 740.5M479 736C448.2 730 404.5 733.5 386.5 736M649.5 586L668.5 584L675.5 585L681 588M649.5 586L653.5 572.5V545.5L655 540.5L663 526M649.5 586L634 584L621.5 588.5L612.5 589.5L605 588.5L585.5 582H578.5H564L550 586L533 584M681 588L677.5 573.5L681 567L682 554L681 548.5L682 542.5C681.833 537.5 680.9 526.2 678.5 521M678.5 521L673.5 526H663M678.5 521L683.5 507.5M663 526L655 524.5L649.5 519.5L644 518L638 519.5L626.5 524.5H614.5L605 516.5H588L578.5 521H570L564 519.5L556 518L553 515.5H550L546 518H528.5M683.5 507.5L677.5 497V492L666.5 484.5M431 965L418.5 948.5L415.5 930M415.5 930C392.7 934.4 377.333 921.167 372.5 914M415.5 930C416.794 929.735 418.333 929.327 420 928.766M440 910L425.5 910.5L407 915L406.559 917.5M440 910C439.861 910.864 439.657 911.697 439.398 912.5M440 910L439 903.5L409.5 873C406.827 870.661 403.127 862.74 402.995 847M372.5 914H399L400.5 923.5H405.5L406.559 917.5M372.5 914L355.5 898L349 878.5L336.5 865L333.5 857L332 841.5M406.559 917.5H417M417 917.5L420 928.766M417 917.5L426.182 915.45M420 928.766C422.852 927.807 426.081 926.4 429.108 924.5M439.398 912.5L426.182 915.45M439.398 912.5C437.711 917.71 433.636 921.657 429.108 924.5M426.182 915.45L429.108 924.5M406 817.5C403.744 829.443 402.93 839.185 402.995 847M406 817.5C405.047 817.076 403.255 816.877 401 816.832M402.995 847L419 845.5M419 845.5L421 843M419 845.5L421 848M421 843L423 846.5M421 843V834.5L436.5 818.5L439 817.5M423 846.5L429.5 847L445 843M423 846.5L421 848M445 843L446.5 847M445 843L442 834.5M446.5 847H463.246M446.5 847L434.5 864C431.833 863 425.4 859.6 421 854V848M439 817.5V813.5M439 817.5L441 822.5L442 834.5M442 834.5L439.5 834L435.5 827.5M332 841.5H339.5L379.5 818.5C384.892 817.765 394.735 816.705 401 816.832M332 841.5C317 836.333 283.7 818.8 270.5 790M401 816.832L405 795C402.167 790.167 395.3 778.9 390.5 772.5L386.5 736M386.5 736C374.9 739.2 350.333 736 339.5 734C317.1 723.6 307.167 743.667 305 755L298.5 760.5M386.5 736L390.5 699.5L395.5 690L406.5 686.5L416.5 684L421 679L423 674M270.5 790L285 779.5L298.5 760.5M270.5 790C262.333 796.167 241.6 809.2 224 812C218.833 810.667 212.3 795.4 227.5 745M298.5 760.5L277.5 740.5M423 674L430.5 669.5L468.5 668.5L488 653M423 674L418 669.5M488 653C486.167 647.667 481.1 636.8 475.5 636M475.5 636C483.1 634.4 487.5 628.333 488.75 625.5M475.5 636C465.784 636.38 457.331 636.549 450 636.56M488.75 625.5V599L490.875 598M528.5 584L524 586H509M528.5 584H533M528.5 584L526 578.5L528.5 518M528.5 518H512.5M277.5 740.5C274.5 735.5 269.4 721.6 273 706M277.5 740.5L227.5 745M273 706L323 690L341.5 682L350 679L365.5 663.5M273 706C255 712.8 240.5 706.5 235.5 702.5M273 706C274 701.5 273.7 691.1 264.5 685.5M365.5 663.5H382L402.5 669.5H418M365.5 663.5L355 646C342.167 644.5 318.8 634 328 604C323.5 601.167 316.2 590.8 323 572M418 669.5L423 662C417.667 654.167 406.9 637.2 406.5 632M406.5 632C407.85 633.756 418.698 636.605 450 636.56M406.5 632L398.5 625.5L385 624.5L379 618V608L395.5 597M450 636.56L451.108 612.5M451.5 604L451.108 612.5M451.108 612.5C443.595 607.3 443.239 600 444 597H395.5M323 572L347.5 558M323 572L308.5 581.667M347.5 558L377 559.891M347.5 558H338.5M386.5 560.5L382 564.5M386.5 560.5L377 559.891M386.5 560.5L407.5 559.891M386.5 560.5L388 526.5M382 564.5L377 559.891M382 564.5L390.5 572L386.5 575.5L375.5 574L373 578.5L380.5 586L382 591.5C385.667 591.667 393.5 593 395.5 597M388 526.5C387.833 523 390.6 515.9 403 515.5M388 526.5C392.8 530.1 400 520.667 403 515.5M403 515.5H442.5M403 515.5V499L398.5 487.915M455 515.5L453.116 541.5M455 515.5H477.5L494 520.5M455 515.5H442.5M452.5 550L449.5 564.5M452.5 550H444V541.5H453.116M452.5 550L453.116 541.5M452.5 550H461.5V546L453.116 541.5M449.5 564.5L435 562.5M449.5 564.5L493 567.5M493 567.5L490.875 598M493 567.5C494.333 571.833 499.4 581.6 509 586M493 567.5L494 520.5M490.875 598L493 597L495.5 591.5L499.5 589.5L503 586H509M494 520.5L500.5 518H512.5M494 520.5C492.652 516.947 488.368 509.268 480.472 501M470.5 492L444 508L442.5 515.5M470.5 492C474.314 494.966 477.627 498.021 480.472 501M470.5 492L448.5 480M470.5 492L479 487M512.5 518L511.5 490.5M511.5 490.5L487.5 487.915M511.5 490.5L527 476.5M479 487L481 493M479 487L487.5 487.915M479 487L484 483M481 493L480.472 501M481 493L487.5 487.915M487.5 487.915L484 483M527 476.5L509 461.118M527 476.5L533 472H541L576.5 455M499.5 453L509 461.118M499.5 453H507.5L509 461.118M499.5 453L463 451L464.5 463M464.5 463L448.5 480M464.5 463L484 476.5V483M448.5 480H421.5L398.5 487.915M576.5 455L584.5 446.5H591M576.5 455L588.25 456.25M605 455L600 457.5L588.25 456.25M605 455L615.5 454.5L622.5 456.5M605 455C606.6 445.8 602.333 444.833 600 445.5M622.5 456.5L625.5 458V463L634 472V476L645 485.5H649.5L655.5 480.447M622.5 456.5V451.5C619 450 612.7 442.3 615.5 423.5L606 412.5L607.5 405C603.833 403.5 595.8 399.5 593 395.5L604 384.5M662.5 477.5H659L655.5 480.447M662.5 477.5V483.5M662.5 477.5L666.5 475M662.5 483.5L655.5 480.447M662.5 483.5L666.5 484.5M666.5 484.5L673.5 480V475M591 446.5L592 453.5M591 446.5C593.2 444.1 597.917 444.833 600 445.5M592 453.5L588.25 456.25M592 453.5L600 445.5M604 384.5C606.5 382 610 375.8 604 371M604 384.5C601.5 382 598 375.8 604 371M604 371L607.5 359M607.5 359L567.5 372.5L550.5 376L540 373.5L555 318.5L564.5 321L590 332.5L609.5 345.5M607.5 359L615.5 352.5M609.5 345.5H620.5M609.5 345.5L615.5 352.5M620.5 345.5L615.5 352.5M620.5 345.5L638 325M638 325L655.5 322.5M638 325C641.6 328.6 647.833 330.833 650.5 331.5M655.5 322.5L654.5 325.5M655.5 322.5L654.5 312L659.5 305.5M655.5 322.5L659.5 324.5L667.75 321.5M654.5 325.5L650.5 331.5M654.5 325.5L663 334.5M650.5 331.5C650.868 331.868 652.078 332.5 654.5 333.126M663 334.5C659.235 334.141 656.468 333.635 654.5 333.126M663 334.5C664.5 334.167 668 331.9 670 325.5M654.5 333.126V336.5M670 325.5L668 324.5L667.75 321.5M670 325.5L693 334.5V363M659.5 305.5L661 310.5L667.5 318.5L667.75 321.5M659.5 305.5L654.5 291L648.5 264L643.5 257.5V253.5H640C638.667 251.667 634.9 247.9 630.5 247.5M693 363L686 368L683.5 376L693 384.5C696 387.833 701.9 396.9 701.5 406.5M693 363L701.5 365.5L713.5 383H720L729 392L741.5 384.5V376L757 362.5L765 336.5M701.5 406.5L684.5 411M701.5 406.5L704.5 443.5M704.5 443.5L680 456.25M680 456.25L657 461.5L665 463.5V468.5M680 456.25L680.5 464.5L676.25 467.75M665 468.5L672 471L676.25 467.75M665 468.5L655.5 472L666.5 475M666.5 475H673.5M673.5 475L680 469M680 469L676.25 467.75M680 469L686 475M765 336.5H770L774 331.5L790 324.5L799.5 331.5H810L828.5 320H840L843 318H849.5L858 310.5L860.5 305L870.5 298.5L868.5 284.5L870.5 279.5L891 276.5L897.5 272.5L905.5 271L909.5 264.5M765 336.5L760.5 331.5V327.5L755.5 321M909.5 264.5H914M909.5 264.5V259M914 264.5L909.5 259M909.5 259L906 254M906 254L900.5 256.5L896 253.5L895.5 241M906 254L905 249L902 243.5V234M902 234L906 231C907.167 229 909.5 222.6 909.5 213M902 234V226.5L904 216.5L894 204L892 195.5M892 195.5L874.5 206M892 195.5C893 192.667 895.1 187 895.5 187M630.5 247.5L627 253.5L626 258.5C623.167 258.333 616.4 257.1 612 253.5C611.833 251 609.6 244.9 602 240.5M630.5 247.5C631.5 242.5 633.3 230.5 632.5 222.5L641 220.5L644.5 223L664 227L682.5 227.5M682.5 227.5V215.5M682.5 227.5C683.667 230.167 689.4 233.3 703 224.5L726 225.5L741 243M741 243L738 248.5L737 253C733.5 254.667 726.2 260 725 268L724.5 285.5L722 288.5V296L719.5 299L720.5 308.5L727.5 310L731.5 314H736.5M741 243L746.66 231M736.5 314L752.5 321.5L755.5 321M736.5 314C739.011 303.328 750.104 310.289 755.5 317C756.981 318.842 754.423 319.277 755.5 321M874.5 206L863.5 208.5L854.5 206H841L813.5 194V187L799 167M874.5 206C875.7 196.8 870.333 195.167 867.5 195.5M799 167V162M799 167L795 165.5M799 162L795 165.5M799 162V149.5V137C807 135 810 132.5 810.5 131.5M795 165.5C789.5 163.5 777.2 159.6 772 160C768.5 155.667 761 150.3 759 163.5L751.5 171.5C748.167 171.167 741.8 170.7 743 171.5C744.2 172.3 745.833 174.5 746.5 175.5V182M746.5 182L738 187M746.5 182L748.5 191L750 202L753.5 211V216.5L749.726 224.5M749.726 224.5L741 223M749.726 224.5L746.66 231M741 223L746.66 231M741 223L739 217.5M739 217.5L743 211L739 208.5L733.5 216.5L739 217.5ZM895.5 187C895.9 187 908 196.667 914 201.5M895.5 187L897.5 185.5V175.5M895.5 187L908.5 193H913M897.5 169.5H908.5M897.5 169.5V175.5M897.5 169.5C892.679 167.692 893.608 165.203 895.5 163.444M908.5 169.5L905.5 175.5M908.5 169.5C907.9 167.013 906.593 162.954 904.648 159M905.5 175.5H897.5M905.5 175.5L914 187L913 193M913 193L918.5 195.5M897.5 149.5V162C896.842 162.37 896.119 162.868 895.5 163.444M897.5 149.5L891.5 137L885 133.5C881.8 118.7 883.667 100 885 92.5M897.5 149.5C900.412 151.636 902.814 155.271 904.648 159M895.5 163.444C886.333 155.296 864.5 138.2 850.5 135C849.333 134.167 839.7 132.3 810.5 131.5M810.5 131.5L822 125.5C822.167 119 827.7 105.9 848.5 105.5L866.5 91.5L885 92.5M885 92.5L890 85.5L886 73.5L889 70.5H900.5M900.5 70.5L914 80L926 84M900.5 70.5L898 45.5M926 84L906.5 119V135L910.5 141L908.5 146V152L904.648 159M926 84L930.5 75.5V67L934 58M898 45.5L888 5M898 45.5L918 44.5L922.5 45.3372M939.5 48.5L934 58M939.5 48.5L928.75 46.5M939.5 48.5L962 53M934 58L928 51M928 51L928.75 46.5M928 51L922.5 45.3372M928.75 46.5L922.5 45.3372M962 53H981.5M962 53C962.167 55 964.4 59.8 972 63C974 62.1667 978.7 59 981.5 53M981.5 53L996.5 49.5M996.5 49.5L993 47.2639M996.5 49.5L1001 49.6849M962 9L963 20L978.5 38L993 47.2639M1033 51L1038 28.5V0.5M1033 51L1044 52L1046 48.5M1033 51L1014.75 50.25M1014.75 50.25L1016.5 45.3372L1009.75 42.6686M1014.75 50.25L1007.88 49.9675M1001 44.5L1003 40L1009.75 42.6686M1001 44.5L993 47.2639M1001 44.5V49.6849M1001 49.6849L1007.88 49.9675M1009.75 42.6686L1007.88 49.9675M227.5 745H212L194.5 739.5M194.5 739.5L200 731.5V726M194.5 739.5L181 751.5L179.5 762.5M200 726C205.124 721.673 214.964 713.969 224 708.374M200 726L192.5 732M235.5 702.5C240.7 694.1 247.333 689.667 250 688.5M235.5 702.5C232.206 703.64 228.189 705.781 224 708.374M264.5 685.5C261.833 686.5 255.2 688.5 250 688.5M264.5 685.5L261.5 676.5M250 688.5L249 679.5L256.5 676M256.5 676L261.5 676.5M256.5 676L254 670.5M261.5 676.5L262 670.5M262 670.5L274.5 669.5M262 670.5L258.208 663.5M255.5 658.5L258.208 663.5M258.208 663.5L254 670.5M254 670.5H248M224 708.374L202 674.5M202 674.5L208.5 667L226 632C233.333 625.167 249.2 611.6 254 612M202 674.5L179.5 691.5L160 700M254 612C256.833 611 264.3 609.1 271.5 609.5L291.5 597L300.5 587L308.5 581.667M254 612L251 601M192.5 732L169 742.5M192.5 732L171.5 752.661M169 742.5L159 753M169 742.5L157 744.5L156.5 748L159 753M159 753L158.5 759L161.5 762.5M161.5 762.5L171.5 752.661M161.5 762.5L167.5 769.5M161.5 762.5L151 763M179.5 762.5L171.5 752.661M179.5 762.5V771L174.5 775.5H169M179.5 762.5L167.5 769.5M167.5 769.5V775.5H169M151 763L162.5 785.5L169 775.5M151 763L143.5 757L133 752.661L100.5 749M100.5 749L118 712.5L122 708M100.5 749L94.5 742.5L91 729L88 701M122 708L127 709M122 708L116.11 698.5M127 709H134M127 709L123 698.5M134 709L147.5 706.5M134 709L131.5 700M147.5 706.5L160 700M147.5 706.5L143.25 695.25M160 700L155 690.5M155 690.5L147.5 693.532M155 690.5L154 684.5L151 681.5L142.5 683M131.5 700L139 696.968M131.5 700L129 695.25M143.25 695.25L147.5 693.532M143.25 695.25L139 696.968M147.5 693.532L142.5 683M142.5 683L137.5 684.5L135 687.5M135 687.5L139 696.968M135 687.5L129 695.25M129 695.25L123 698.5M123 698.5H116.11M106.5 683L116.11 698.5M106.5 683L91 691.5L88 701M106.5 683L97 661.5L98 638M106.5 683L111 681.5L125 667L139 661.5L142.5 654.5L150 644.5L151 633L146 620.5M88 701L58.5 687.5L38.5 681.5L26 674L9 678.5L1.5 675.5L7.5 671L13.5 669.5L17 663.5V656L12 647V634.5L28 630.5H41.5L57 626L65.5 619L72 622L79.5 620.5L87 616.5L94 622L98 628.5V638M98 638L114 634.5L133 624M133 624L146 620.5M133 624L137.5 615.5V595.5M146 620.5L160 608H172H182.5H188.5L198 615.5M137.5 595.5L161.5 587L187 585L214.5 588.5H223L236 601H251M137.5 595.5L126 578.5V545L166.5 543L192 539.5L216.5 535L220 532.5H229M251 601V554L245 547L238 545L229 532.5M198 615.5L200 605.5M198 615.5L200 620.5M229 532.5L242.5 531L257.5 526.5L273.5 519L293 531H310M310 531L342 529.5M310 531L308.5 550M342 529.5V543L338.5 548.5V558M342 529.5L346.5 527.5V506L349 495L350 486L362 484H385.5L398.5 487.915M338.5 558H314.5M314.5 558L308.5 550M314.5 558H303M308.5 550L303 558M303 558L295 559.25M287 560.5L295 559.25M295 559.25L303 564.5L308.5 572V581.667" stroke="black"/>
</svg>
